# Blender 5.0.1
# www.blender.org
mtllib model.mtl
o Cube.001
v 0.352963 0.647974 -0.834749
v 0.352963 2.647974 -0.834749
v 0.352963 0.647974 -1.495226
v 0.352963 2.647974 -1.495226
v -0.276478 0.647974 -0.834749
v -0.276478 2.647974 -0.834749
v -0.276478 0.647974 -1.495226
v -0.276478 2.647974 -1.495226
v 0.352963 0.146402 -0.834749
v 0.352963 0.146402 -1.495226
v -0.276478 0.146402 -0.834749
v -0.276478 0.146402 -1.495226
v -0.909720 0.647974 -0.834749
v -0.909720 0.647974 -1.495226
v -0.909720 0.146402 -0.834749
v -0.909720 0.146402 -1.495226
v -1.217971 0.647974 -0.834749
v -1.217971 0.647974 -1.495226
v -1.217971 0.146402 -0.834749
v -1.217971 0.146402 -1.495226
vn 1.0000 -0.0000 -0.0000
vn -0.0000 -0.0000 -1.0000
vn -1.0000 -0.0000 -0.0000
vn -0.0000 -0.0000 1.0000
vn -0.0000 1.0000 -0.0000
vn -0.0000 -1.0000 -0.0000
vt 0.625000 0.000000
vt 0.375000 0.250000
vt 0.375000 0.000000
vt 0.625000 0.250000
vt 0.375000 0.500000
vt 0.625000 0.500000
vt 0.375000 0.750000
vt 0.625000 0.750000
vt 0.375000 1.000000
vt 0.875000 0.500000
vt 0.125000 0.750000
vt 0.125000 0.500000
vt 0.625000 1.000000
vt 0.875000 0.750000
s 0
f 2/1/1 1/3/1 3/2/1
f 4/4/2 3/2/2 7/5/2
f 8/6/3 7/5/3 5/7/3
f 6/8/4 5/7/4 1/9/4
f 5/7/5 7/5/5 14/5/5
f 4/10/5 8/6/5 6/8/5
f 12/5/6 10/12/6 9/11/6
f 1/9/4 5/7/4 11/7/4
f 7/5/2 3/2/2 10/2/2
f 3/2/1 1/3/1 9/3/1
f 15/7/4 13/7/4 17/7/4
f 11/7/4 5/7/4 13/7/4
f 12/5/6 11/7/6 15/7/6
f 7/5/2 12/5/2 16/5/2
f 17/7/3 18/5/3 20/5/3
f 13/7/5 14/5/5 18/5/5
f 14/5/2 16/5/2 20/5/2
f 16/5/6 15/7/6 19/7/6
f 2/1/1 3/2/1 4/4/1
f 4/4/2 7/5/2 8/6/2
f 8/6/3 5/7/3 6/8/3
f 6/8/4 1/9/4 2/13/4
f 5/7/5 14/5/5 13/7/5
f 4/10/5 6/8/5 2/14/5
f 12/5/6 9/11/6 11/7/6
f 1/9/4 11/7/4 9/9/4
f 7/5/2 10/2/2 12/5/2
f 3/2/1 9/3/1 10/2/1
f 15/7/4 17/7/4 19/7/4
f 11/7/4 13/7/4 15/7/4
f 12/5/6 15/7/6 16/5/6
f 7/5/2 16/5/2 14/5/2
f 17/7/3 20/5/3 19/7/3
f 13/7/5 18/5/5 17/7/5
f 14/5/2 20/5/2 18/5/2
f 16/5/6 19/7/6 20/5/6
o Cube.002
v 0.352963 0.647974 0.717706
v 0.352963 2.647974 0.717706
v 0.352963 0.647974 0.057228
v 0.352963 2.647974 0.057228
v -0.276478 0.647974 0.717706
v -0.276478 2.647974 0.717706
v -0.276478 0.647974 0.057228
v -0.276478 2.647974 0.057228
v 0.352963 0.146402 0.717706
v 0.352963 0.146402 0.057228
v -0.276478 0.146402 0.717706
v -0.276478 0.146402 0.057228
v -0.909720 0.647974 0.717706
v -0.909720 0.647974 0.057228
v -0.909720 0.146402 0.717706
v -0.909720 0.146402 0.057228
v -1.217971 0.647974 0.717706
v -1.217971 0.647974 0.057228
v -1.217971 0.146402 0.717706
v -1.217971 0.146402 0.057228
vn 1.0000 -0.0000 -0.0000
vn -0.0000 -0.0000 -1.0000
vn -1.0000 -0.0000 -0.0000
vn -0.0000 -0.0000 1.0000
vn -0.0000 1.0000 -0.0000
vn -0.0000 -1.0000 -0.0000
vt 0.625000 0.000000
vt 0.375000 0.250000
vt 0.375000 0.000000
vt 0.625000 0.250000
vt 0.375000 0.500000
vt 0.625000 0.500000
vt 0.375000 0.750000
vt 0.625000 0.750000
vt 0.375000 1.000000
vt 0.875000 0.500000
vt 0.125000 0.750000
vt 0.125000 0.500000
vt 0.625000 1.000000
vt 0.875000 0.750000
s 0
f 22/15/7 21/17/7 23/16/7
f 24/18/8 23/16/8 27/19/8
f 28/20/9 27/19/9 25/21/9
f 26/22/10 25/21/10 21/23/10
f 25/21/11 27/19/11 34/19/11
f 24/24/11 28/20/11 26/22/11
f 32/19/12 30/26/12 29/25/12
f 21/23/10 25/21/10 31/21/10
f 27/19/8 23/16/8 30/16/8
f 23/16/7 21/17/7 29/17/7
f 35/21/10 33/21/10 37/21/10
f 31/21/10 25/21/10 33/21/10
f 32/19/12 31/21/12 35/21/12
f 27/19/8 32/19/8 36/19/8
f 37/21/9 38/19/9 40/19/9
f 33/21/11 34/19/11 38/19/11
f 34/19/8 36/19/8 40/19/8
f 36/19/12 35/21/12 39/21/12
f 22/15/7 23/16/7 24/18/7
f 24/18/8 27/19/8 28/20/8
f 28/20/9 25/21/9 26/22/9
f 26/22/10 21/23/10 22/27/10
f 25/21/11 34/19/11 33/21/11
f 24/24/11 26/22/11 22/28/11
f 32/19/12 29/25/12 31/21/12
f 21/23/10 31/21/10 29/23/10
f 27/19/8 30/16/8 32/19/8
f 23/16/7 29/17/7 30/16/7
f 35/21/10 37/21/10 39/21/10
f 31/21/10 33/21/10 35/21/10
f 32/19/12 35/21/12 36/19/12
f 27/19/8 36/19/8 34/19/8
f 37/21/9 40/19/9 39/21/9
f 33/21/11 38/19/11 37/21/11
f 34/19/8 40/19/8 38/19/8
f 36/19/12 39/21/12 40/19/12
o Cube
v -1.000000 2.474351 0.701752
v -1.000000 3.840990 0.701752
v -1.000000 2.474351 -1.440108
v -1.000000 3.840990 -1.440108
v 1.000000 2.474351 0.701752
v 1.000000 3.840990 0.701752
v 1.000000 2.474351 -1.440108
v 1.000000 3.840990 -1.440108
v -1.000000 3.840990 -1.497713
v -1.000000 2.474351 -1.497713
v 1.000000 2.474351 -1.497713
v 1.000000 3.840990 -1.497713
v -1.000000 2.474351 0.720054
v -1.000000 3.840990 0.720054
v 1.000000 3.840990 0.720054
v 1.000000 2.474351 0.720054
v -1.245168 2.474351 -1.440108
v -1.245168 2.474351 0.701752
v -1.245168 3.840990 0.701752
v -1.245168 3.840990 -1.440108
v -1.245168 3.840990 -1.497713
v -1.245168 2.474351 -1.497713
v -1.245168 2.474351 0.720054
v -1.245168 3.840990 0.720054
v 1.253631 3.840990 -1.440108
v 1.253631 2.474351 -1.440108
v 1.253631 2.474351 0.701752
v 1.253631 3.840990 0.701752
v 1.253631 3.840990 -1.497713
v 1.253631 2.474351 -1.497713
v 1.253631 3.840990 0.720054
v 1.253631 2.474351 0.720054
v -1.000000 3.840990 -1.440108
v -1.000000 3.840990 -1.497713
v -1.245168 3.840990 -1.440108
v -1.245168 3.840990 -1.497713
vn -0.0000 1.0000 -0.0000
vn -0.0000 -0.0000 1.0000
vn -0.0000 -1.0000 -0.0000
vn -0.0000 -0.0000 -1.0000
vn -1.0000 -0.0000 -0.0000
vn 1.0000 -0.0000 -0.0000
vt 0.625000 0.250000
vt 0.625000 0.500000
vt 0.875000 0.500000
vt 0.375000 0.700654
vt 0.625000 0.700654
vt 0.875000 0.700654
vt 0.375000 0.500000
vt 0.125000 0.700654
vt 0.125000 0.500000
vt 0.375000 0.250000
vt 0.375000 1.000000
vt 0.625000 0.049346
vt 0.375000 0.049346
vt 0.625000 1.000000
s 0
usemtl Material.001
f 61/29/13 75/29/13 76/29/13
f 48/30/13 49/31/13 44/31/13
f 56/32/14 71/33/14 55/33/14
f 42/34/13 55/33/13 46/33/13
f 47/35/15 41/36/15 43/37/15
f 44/31/13 46/33/13 48/30/13
f 49/29/16 51/35/16 50/38/16
f 50/38/16 61/29/16 49/29/16
f 55/33/13 68/33/13 46/33/13
f 43/37/15 51/35/15 47/35/15
f 55/33/14 53/39/14 56/32/14
f 48/30/13 69/30/13 52/30/13
f 53/36/15 58/36/15 41/36/15
f 45/32/15 53/36/15 41/36/15
f 59/40/17 57/38/17 58/41/17
f 60/29/17 62/38/17 57/38/17
f 58/41/17 64/40/17 59/40/17
f 42/34/13 64/34/13 54/34/13
f 44/31/13 59/34/13 42/34/13
f 41/36/15 57/37/15 43/37/15
f 54/42/14 63/39/14 53/39/14
f 43/37/15 62/37/15 50/37/15
f 65/30/18 67/32/18 66/35/18
f 66/35/18 69/30/18 65/30/18
f 68/33/18 72/32/18 67/32/18
f 51/35/15 66/35/15 47/35/15
f 46/33/13 65/30/13 48/30/13
f 45/32/15 72/32/15 56/32/15
f 52/30/16 70/35/16 51/35/16
f 47/35/15 67/32/15 45/32/15
f 74/31/13 75/31/13 73/31/13
f 60/31/13 73/31/13 75/31/13
f 44/31/13 74/31/13 73/31/13
f 49/29/13 76/29/13 74/29/13
f 61/29/13 60/29/13 75/29/13
f 48/30/13 52/30/13 49/31/13
f 56/32/14 72/32/14 71/33/14
f 42/34/13 54/34/13 55/33/13
f 47/35/15 45/32/15 41/36/15
f 44/31/13 42/34/13 46/33/13
f 49/29/16 52/30/16 51/35/16
f 50/38/16 62/38/16 61/29/16
f 55/33/13 71/33/13 68/33/13
f 43/37/15 50/37/15 51/35/15
f 55/33/14 54/42/14 53/39/14
f 48/30/13 65/30/13 69/30/13
f 53/36/15 63/36/15 58/36/15
f 45/32/15 56/32/15 53/36/15
f 59/40/17 60/29/17 57/38/17
f 60/29/17 61/29/17 62/38/17
f 58/41/17 63/41/17 64/40/17
f 42/34/13 59/34/13 64/34/13
f 44/31/13 60/31/13 59/34/13
f 41/36/15 58/36/15 57/37/15
f 54/42/14 64/42/14 63/39/14
f 43/37/15 57/37/15 62/37/15
f 65/30/18 68/33/18 67/32/18
f 66/35/18 70/35/18 69/30/18
f 68/33/18 71/33/18 72/32/18
f 51/35/15 70/35/15 66/35/15
f 46/33/13 68/33/13 65/30/13
f 45/32/15 67/32/15 72/32/15
f 52/30/16 69/30/16 70/35/16
f 47/35/15 66/35/15 67/32/15
f 74/31/13 76/31/13 75/31/13
f 60/31/13 44/31/13 73/31/13
f 44/31/13 49/31/13 74/31/13
f 49/29/13 61/29/13 76/29/13
